<svg xmlns="http://www.w3.org/2000/svg" width="1024" height="1024" viewBox="0 0 1024 1024">
  <defs>
    <linearGradient id="bg" x1="0" y1="0" x2="1024" y2="1024" gradientUnits="userSpaceOnUse">
      <stop stop-color="#3BD681"/>
      <stop offset="1" stop-color="#20B85E"/>
    </linearGradient>
  </defs>
  <rect width="1024" height="1024" fill="url(#bg)"/>
  <g transform="translate(512 548)">
    <path d="M30 -300 q22 -78 108 -84 q-10 82 -108 84 Z" fill="#D6F7E4"/>
    <path d="M14 -298 q-6 -40 -8 -66" stroke="#B8ECCB" stroke-width="16" fill="none" stroke-linecap="round"/>
    <path d="M0 -300 C 214 -300 324 -168 324 -14 C 324 206 182 336 0 336 C -182 336 -324 206 -324 -14 C -324 -168 -214 -300 0 -300 Z" fill="#ffffff"/>
    <circle cx="-108" cy="6" r="64" fill="#22323C"/>
    <circle cx="108" cy="6" r="64" fill="#22323C"/>
    <circle cx="-90" cy="-14" r="21" fill="#fff"/>
    <circle cx="126" cy="-14" r="21" fill="#fff"/>
    <circle cx="-196" cy="118" r="48" fill="#FFB3D6" opacity="0.9"/>
    <circle cx="196" cy="118" r="48" fill="#FFB3D6" opacity="0.9"/>
    <path d="M-98 156 q98 98 196 0" stroke="#22323C" stroke-width="36" fill="none" stroke-linecap="round"/>
  </g>
</svg>
